# xmcd
#
# Track frame offsets:
#	150
#	11940
#	27545
#	47179
#	58634
#	70903
#	88390
#	100151
#	111493
#	123689
#	133442
#	148999
#	164884
#	175000
#
# Disc length: 2480 seconds
#
# Revision: 1
# Processed by: cddbd v1.5.1PL0 Copyright (c) Steve Scherf et al.
# Submitted via: audiograbber 1.83.01
#
DISCID=e709ae0e
DTITLE=Skeeter Davis - Wanted
DYEAR=1900
DGENRE=
TTITLE0=The End Of The World
TTITLE1=Desperado
TTITLE2=I Can't Stop Loving You
TTITLE3=Crying Time
TTITLE4=Me And Bobby McGee
TTITLE5=Always On My Mind
TTITLE6=I Can't Help You
TTITLE7=Gonna Get Along Without You Now
TTITLE8=What Does It Take
TTITLE9=I Can't Stay Mad At You
TTITLE10=Blue Kentucky Girl
TTITLE11=I Honestly Love You
TTITLE12=You Don't Have To Be A Baby To Cry
TTITLE13=Rocky Top
EXTD=
EXTT0=
EXTT1=
EXTT2=
EXTT3=
EXTT4=
EXTT5=
EXTT6=
EXTT7=
EXTT8=
EXTT9=
EXTT10=
EXTT11=
EXTT12=
EXTT13=
PLAYORDER=
